<?xml version="1.0"?>
<svg width="640" height="480" xmlns="http://www.w3.org/2000/svg" xmlns:svg="http://www.w3.org/2000/svg">
 <!-- Created with SVG-edit - http://svg-edit.googlecode.com/ -->

 <g>
  <title>Layer 1</title>
  <polygon stroke-width="5" stroke="#000000" points="314,70.47128677368164 355.739501953125,190.55050659179688 482.83984375,193.14060974121094 381.53594970703125,269.9437561035156 418.3487548828125,391.6237487792969 314,319.011474609375 209.6512451171875,391.6237487792969 246.4640655517578,269.9437561035156 145.16015625,193.14060974121094 272.260498046875,190.55050659179688 314,70.47128677368164 355.739501953125,190.55050659179688 " strokeWidth="5" strokecolor="#000000" fill="none" orient="point" r2="71.011486" r="177.528714" point="5" shape="star" id="svg_1" cy="219" cx="270"/>
  <polygon stroke-width="5" stroke="#000000" points="313,140.28126525878906 338.0910949707031,212.465087890625 414.49554443359375,214.0220947265625 353.59820556640625,260.191162109375 375.7276916503906,333.3372802734375 313,289.6875 250.2722930908203,333.3372802734375 272.40179443359375,260.191162109375 211.50445556640625,214.0220947265625 287.9089050292969,212.465087890625 313,140.28126525878906 338.0910949707031,212.465087890625 " strokeWidth="5" strokecolor="#000000" fill="none" orient="point" r2="42.687495" r="106.718737" point="5" shape="star" id="svg_2" cy="235" cx="308"/>
  <polygon stroke-width="5" stroke="#000000" points="314,189.2532196044922 326.4015197753906,224.9307861328125 364.1651611328125,225.70034790039062 334.0660705566406,248.51986694335938 345.0037841796875,284.67303466796875 314,263.0987243652344 282.9962158203125,284.67303466796875 293.9339294433594,248.51986694335938 263.8348388671875,225.70034790039062 301.5984802246094,224.9307861328125 314,189.2532196044922 326.4015197753906,224.9307861328125 " strokeWidth="5" strokecolor="#000000" fill="none" orient="point" r2="21.09871" r="52.746775" point="5" shape="star" id="svg_3" cy="237" cx="313"/>
  <ellipse ry="183" rx="184" id="svg_4" cy="244" cx="315" stroke-linecap="null" stroke-linejoin="null" stroke-dasharray="null" stroke-width="5" stroke="#000000" fill="none"/>
  <ellipse stroke="#000000" id="svg_5" cy="84" cx="45" stroke-linecap="null" stroke-linejoin="null" stroke-dasharray="null" stroke-width="5" fill="none"/>
  <ellipse ry="22" rx="20" id="svg_8" cy="242" cx="314" stroke-linecap="null" stroke-linejoin="null" stroke-dasharray="null" stroke-width="5" stroke="#000000" fill="none"/>
  <ellipse ry="106" rx="111" id="svg_9" cy="247" cx="315" stroke-linecap="null" stroke-linejoin="null" stroke-dasharray="null" stroke-width="5" stroke="#000000" fill="none"/>
  <polygon stroke-width="5" stroke="#000000" points="314,230.13034057617188 316.79071044921875,238.1588897705078 325.2887268066406,238.3320770263672 318.5155029296875,243.46717834472656 320.976806640625,251.60275268554688 314,246.74786376953125 307.023193359375,251.60275268554688 309.4844970703125,243.46717834472656 302.7112731933594,238.3320770263672 311.20928955078125,238.1588897705078 314,230.13034057617188 316.79071044921875,238.1588897705078 " strokeWidth="5" strokecolor="#000000" fill="none" orient="point" r2="4.747865" r="11.869663" point="5" shape="star" id="svg_13" cy="242" cx="315"/>
 </g>
</svg>